<svg xmlns="http://www.w3.org/2000/svg" width="128" height="128" fill-rule="evenodd" clip-rule="evenodd" image-rendering="optimizeQuality" shape-rendering="geometricPrecision" text-rendering="geometricPrecision" viewBox="0 0 1333.33 1333.33" id="adidas-logo"><path d="M1100.37 1041.36c-24.9,-3.96 -47.09,-5.16 -47.09,-18.53 0,-5.15 3.05,-10.63 7.9,-14.28 4.25,-3.33 15.48,-4.56 23.1,-4.56 7.87,0 15.77,3.96 20.66,9.12 3.03,3.65 6.67,9.42 7.28,15.5l0 0 40.39 0c-0.92,-14.89 -7.28,-29.48 -18.83,-37.66 -11.27,-8.21 -25.81,-18.23 -45.86,-18.23 -19.14,0 -37.98,0.61 -51.01,10.34 -13.09,9.39 -22.51,25.19 -22.51,38.85 0,7.89 -0.6,17.31 2.46,23.07 3.34,5.78 13.04,17.63 20.65,22.2 10.64,6.07 35.54,8.5 49.19,12.15 11.24,2.72 24.93,3.33 27.95,14.56 1.83,6.69 -0.28,12.77 -6.38,16.71 -5.77,3.95 -14.56,6.69 -24.29,6.69 -10.03,0 -19.73,-3.04 -24.61,-9.11 -4.25,-5.78 -6.65,-11.23 -10.04,-20.04l0 0 -40.37 0c0.92,18.52 11.26,36.75 24.03,47.06 12.41,10.03 29.12,14.9 50.41,14.9 21.22,0 39.76,-3.66 53.43,-13.38 13.37,-9.72 20.67,-27.94 20.67,-42.83 0,-12.76 -3.65,-22.77 -9.44,-30.67 -11.81,-15.48 -33.11,-19.74 -47.67,-21.86l0 0z"></path><polygon points="573.76 1145.24 614.72 1145.24 614.72 975.15 573.76 975.15"></polygon><polygon points="573.76 963.63 615.06 963.63 615.06 922.62 573.76 922.62"></polygon><path d="M458.34 1112.74l-.31 0c-27.93 0-50.72-22.78-50.72-50.73 0-27.63 22.78-50.71 50.72-50.71l0 0 .31 0c27.61 0 50.72 22.78 50.72 50.71 0 27.94-23.11 50.73-50.72 50.73l0 0zm55.57-115.11c-15.18-11.85-34.63-20.02-55.88-20.65-.6 0-1.23 0-2.13 0-47.07 0-85.36 38.28-85.36 85.03 0 47.08 38.28 85.66 85.36 85.66.9 0 1.53 0 2.13 0 21.25-.3 40.7-8.8 55.59-23.39l0 0 .29 20.96 38.88 0 0-222.61-38.88 0 0 75zM712.56 1112.43c-27.95 0-51.07-23.07-51.07-51.02 0-27.64 23.11-50.43 51.07-50.43 27.9 0 50.97 22.79 50.97 50.43 0 27.94-23.07 51.02-50.97 51.02l0 0zm55.85-115.4c-15.2-11.85-34.63-20.05-55.85-20.65-.63 0-1.54 0-2.14 0-47.1 0-85.67 38.56-85.67 85.33 0 47.07 38.56 85.66 85.67 85.66.59 0 1.51 0 2.14 0 21.22-.62 40.37-9.11 55.56-23.7l0 0 0 20.98 38.87 0 0-222.34-38.87 0 .29 74.72zM265.16 1110c-.28 0-.28 0-.28 0-27.96 0-50.44-22.48-50.44-50.42 0-27.63 22.48-50.42 50.44-50.42 0 0 0 0 .28 0 27.64 0 50.43 22.79 50.43 50.42 0 27.94-22.8 50.42-50.43 50.42l0 0zm50.72-134.85l0 16.1c-7.87-8.5-11.53-11.24-20.66-14.57-8.2-3.04-19.42-5.77-30.34-6.08-.63 0-1.23 0-1.83 0-13.07 0-24.58 2.13-34.91 6.38-10.04 4.25-19.46 10.93-27.95 20.05-7.59 7.9-13.69 17.61-18.23 28.25-3.96 10.61-6.08 21.56-6.08 33.37 0 25.83 8.51 47.41 25.51 64.1 16.71 17.02 37.96 25.82 63.5 25.82 0 0 0 0 .28 0 10.32 0 21.57-3.05 30.69-6.37 9.07-3.34 15.78-6.07 20.02-12.16l0 0 0 15.48 39.48-.29-.28-170.39-39.2.3zM909.31 1109.69c-27.91-.29-50.7-22.75-50.7-50.69 0-27.65 22.8-50.13 50.7-50.44 27.95 0 50.74 22.79 50.74 50.44 0 27.94-22.79 50.69-50.74 50.69l0 0zm50.74-135.13l.29 16.1c-7.87-8.19-11.81-10.94-20.63-14.59-8.52-3.02-19.44-5.46-30.39-5.76-.6 0-1.2 0-1.8 0-13.07 0-24.6 2.11-34.91 6.07-10.33 4.23-19.78 11.24-27.96 20.04-7.89 7.9-13.98 17.61-18.23 28.56-3.93 10.32-6.36 21.57-6.36 33.39 0 25.52 8.79 47.07 25.78 64.09 16.44 16.7 38.01 25.5 63.49 25.5 10.63 0 21.87-2.72 30.69-6.37 9.13-3.33 16.12-6.07 20.34-12.14l0 0 0 15.49 39.52-.3-.63-170.09-39.17 0zM672.46 885c189.94 0 346.6-133.79 369.68-306.7-70.51 9.17-329.9 52.54-615.54 219.43 65.63 54.29 151.63 87.28 245.86 87.28zm283.45-578.5c-68.36-75.33-169.94-123.16-283.45-123.16-159.32 0-295.24 94.14-348.56 226.52 98.58-47.19 317.64-127.4 632.01-103.36zm73.01 125.03c-12.1-37.3-30.67-71.91-54.41-102.79-104.33 11.89-365.73 54.23-674.57 198.01-.06 2.48-.2 4.93-.2 7.42 0 15.53 1.18 30.79 3.26 45.78 94.48-50.08 372.4-176.48 725.91-148.43zm6.15 21.61c-74.69 6.48-392.65 43.82-701.66 226.69 5.82 11.98 12.28 23.64 19.44 34.85 86.38-50.46 346.51-181.65 691.9-164.77.25-5.22.42-10.46.42-15.74 0-27.9-3.57-55-10.1-81.03z"></path></svg>
