<svg xmlns="http://www.w3.org/2000/svg" width="128" height="128" fill-rule="evenodd" clip-rule="evenodd" image-rendering="optimizeQuality" shape-rendering="geometricPrecision" text-rendering="geometricPrecision" viewBox="0 0 1333.33 1333.33" id="adidas-logo"><path d="M618.24 717.47c-17.62 0-32.63-14.59-32.63-32.21 0-17.58 15.01-32.58 32.63-32.58 17.97 0 32.94 15 32.94 32.58 0 17.63-14.97 32.21-32.94 32.21zm32.94-80.53c-9.75-6.74-21.35-10.09-33.7-10.09-32.22 0-58.81 25.83-58.81 58.41 0 32.21 26.59 58.81 58.81 58.81 12.72 0 24.36-3.69 33.7-10.08l0 7.48 27.73 0 0-113.52-27.73 0 0 8.98zM748.56 717.47c-17.98 0-32.94-14.59-32.94-32.21 0-17.58 14.96-32.58 32.94-32.58 17.62 0 32.62 15 32.62 32.58 0 17.63-15 32.21-32.62 32.21zm32.62-80.53c-9.74-6.74-20.99-10.09-33.34-10.09-32.63 0-59.17 25.83-59.17 58.41 0 32.21 26.54 58.81 59.17 58.81 12.35 0 23.59-3.69 33.34-10.08l0 7.48 28.09 0 0-152.1-28.09 0 0 47.57zM1196.61 674.42c-18.38-4.88-41.96-4.13-41.96-15.76.76-7.82 8.27-10.12 19.5-10.12 16.87 0 17.98 9.4 18.33 15.35l28.5 0c-1.89-22.1-19.87-37.05-48.36-37.05-29.21 0-46.83 16.08-46.83 36.34 0 11.96 6.39 22.47 15.74 27.33 7.52 3.74 17.62 5.98 29.63 7.88 11.99 1.87 23.23 2.6 23.94 11.62 0 5.61-5.96 13.09-18.69 13.09-19.11-.37-23.6-10.85-23.6-17.99l-29.61 0c1.12 22.87 19.85 38.95 51.31 38.95 28.09 0 50.96-10.88 50.96-38.95 0-15.36-11.23-26.2-28.85-30.7zM922.04 717.47c-17.26 0-32.22-14.59-32.22-32.21 0-17.58 14.96-32.58 32.22-32.58 17.97 0 32.95 15 32.95 32.58 0 17.63-14.98 32.21-32.95 32.21zm32.95-80.53c-9.72-6.74-20.96-10.09-33.71-10.09-32.22 0-58.83 25.83-58.83 58.41 0 32.21 26.6 58.81 58.83 58.81 12.76 0 24.35-3.69 33.71-10.08l0 7.48 27.72 0 0-152.1-27.72 0 0 47.57zM1051.99 717.47c-17.61 0-32.56-14.59-32.56-32.21 0-17.58 14.95-32.58 32.56-32.58 17.62 0 32.24 15 32.24 32.58 0 17.63-14.62 32.21-32.24 32.21zm32.24-80.53c-9.36-6.74-21-10.09-33.36-10.09-32.21 0-58.77 25.83-58.77 58.41 0 32.21 26.56 58.81 58.77 58.81 12.76 0 24-3.69 33.36-10.08l0 7.48 28.07 0 0-113.52-28.07 0 0 8.98z"></path><polygon points="823.16 589.37 823.13 589.37 823.13 617.5 851.21 617.5 851.21 589.37"></polygon><polygon points="823.13 741.47 851.21 741.47 851.21 627.96 823.13 627.96"></polygon><polygon points="107.94 719.85 522.03 719.85 522.03 744.07 107.94 744.07"></polygon><polygon points="107.94 673.9 522.03 673.9 522.03 698.13 107.94 698.13"></polygon><polygon points="107.94 627.96 522.03 627.96 522.03 652.19 107.94 652.19"></polygon></svg>
