<svg xmlns="http://www.w3.org/2000/svg" width="128" height="128" fill-rule="evenodd" clip-rule="evenodd" image-rendering="optimizeQuality" shape-rendering="geometricPrecision" text-rendering="geometricPrecision" viewBox="0 0 1333.33 1333.33" id="amd-ryzen-logo"><polygon fill-rule="nonzero" points="572.55 677.92 687.2 677.92 572.55 776.67 572.55 809.88 737.42 809.88 737.42 776.92 622.77 776.92 737.42 678.18 737.42 644.96 572.55 644.96"></polygon><polygon fill-rule="nonzero" points="451.12 710.37 403.92 644.96 363.16 644.96 434.48 743.9 434.48 809.88 467.43 809.88 467.43 743.9 539.09 644.96 498.34 644.96"></polygon><polygon fill-rule="nonzero" points="783.48 677.93 948.35 677.93 948.35 644.94 783.48 644.94"></polygon><polygon fill-rule="nonzero" points="783.48 710.93 783.48 809.91 948.35 809.91 948.35 776.91 816.47 776.91 816.47 743.92 948.35 743.92 948.35 710.93"></polygon><path fill-rule="nonzero" d="M202.99 743.92l60.88 0 38.1 65.99 38.1 0 -38.1 -65.99 0 0c18.22,0 33,-14.77 33,-33l0 -32.99c0,-18.22 -14.77,-32.99 -33,-32.99l-131.98 0 0 32.99 129.64 0c1.29,0 2.34,1.05 2.34,2.34l0 28.31c0,1.29 -1.05,2.34 -2.34,2.34l-129.64 0 0 33 0 65.99 33 0 0 -65.99z"></path><polygon fill-rule="nonzero" points="1130.37 644.99 1130.37 759.64 1031.63 644.99 998.41 644.99 998.41 809.85 1031.37 809.85 1031.37 695.21 1130.11 809.85 1163.33 809.85 1163.33 644.99"></polygon><path d="M256.72 605.96l-20.48 0 -6.26 -15.11 -34.14 0 -5.7 15.11 -20.15 0 30.78 -76.33 22.05 0 33.91 76.33zm-44.65 -58.08l0 0 -11.19 29.65 23.5 0 -12.31 -29.65z"></path><polygon points="331.12 529.63 347.69 529.63 347.69 605.96 328.66 605.96 328.66 558.28 308.07 582.23 305.16 582.23 284.57 558.28 284.57 605.96 265.54 605.96 265.54 529.63 282.11 529.63 306.61 557.94"></polygon><path d="M395.9 529.63c27.87,0 42.19,17.35 42.19,38.28 0,21.93 -13.88,38.05 -44.32,38.05l-31.56 0 0 -76.33 33.69 0zm-14.66 62.33l0 0 12.42 0c19.14,0 24.85,-12.98 24.85,-24.17 0,-13.09 -7.05,-24.17 -25.07,-24.17l-12.2 0 0 48.35z"></path><polygon points="514.97 547.45 475.86 547.45 452.09 523.57 539.29 523.46 539.29 610.77 514.97 586.34"></polygon><polygon points="475.86 586.45 475.97 551.83 452.09 575.27 452.09 610.66 486.81 610.69 511.35 586.45"></polygon></svg>
