<svg xmlns="http://www.w3.org/2000/svg" width="128" height="128" fill-rule="evenodd" clip-rule="evenodd" image-rendering="optimizeQuality" shape-rendering="geometricPrecision" text-rendering="geometricPrecision" viewBox="0 0 1333.33 1333.33" id="amd-logo"><path d="M408.57 769.03l-53.98 0 -16.52 -39.83 -89.96 0 -15.05 39.83 -53.09 0 81.12 -201.17 58.11 0 89.38 201.17zm-117.7 -153.09l0 0 -29.5 78.17 61.94 0 -32.45 -78.17z"></path><polygon points="604.66 567.85 648.31 567.85 648.31 769.03 598.17 769.03 598.17 643.37 543.89 706.49 536.22 706.49 481.95 643.37 481.95 769.03 431.8 769.03 431.8 567.85 475.46 567.85 540.06 642.48"></polygon><path d="M775.39 567.85c73.45,0 111.21,45.72 111.21,100.88 0,57.81 -36.58,100.29 -116.81,100.29l-83.18 0 0 -201.17 88.79 0zm-38.64 164.3l0 0 32.74 0c50.44,0 65.48,-34.22 65.48,-63.71 0,-34.51 -18.58,-63.71 -66.07,-63.71l-32.15 0 0 127.43z"></path><polygon points="1089.23 614.82 986.15 614.82 923.49 551.87 1153.33 551.59 1153.33 781.71 1089.23 717.32"></polygon><polygon points="986.15 717.61 986.44 626.37 923.49 688.14 923.49 781.42 1015.01 781.5 1079.7 717.61"></polygon></svg>
