<svg xmlns="http://www.w3.org/2000/svg" width="128" height="128" fill-rule="evenodd" clip-rule="evenodd" image-rendering="optimizeQuality" shape-rendering="geometricPrecision" text-rendering="geometricPrecision" viewBox="0 0 1333.33 1333.33" id="amg-logo"><polygon points="180 713.95 285.26 713.95 340.37 619.78 235.51 619.78"></polygon><polygon points="391.77 619.78 349 619.78 293.49 713.95 336.67 713.95"></polygon><polygon points="346.95 713.95 375.73 713.95 430.83 619.78 402.05 619.78"></polygon><polygon points="389.71 713.95 410.68 713.95 466.61 619.78 444.81 619.78"></polygon><polygon points="500.33 619.78 482.65 619.78 427.54 713.95 445.22 713.95"></polygon><polygon points="1153.33 641.99 1153.33 619.37 970.76 619.37 970.76 713.54 1153.33 713.54 1153.33 655.15 1044.36 655.15 1044.36 677.76 1123.31 677.76 1123.31 690.1 1001.18 690.1 1001.18 641.99"></polygon><polygon points="907.01 643.22 907.01 713.54 937.44 713.54 937.44 619.37 892.62 619.37 830.94 661.72 767.2 619.37 724.03 619.37 724.03 713.54 754.46 713.54 754.46 643.22 814.08 686.81 844.93 686.81"></polygon><path d="M702.23 713.54l-50.57 -94.17 -122.13 0 -55.51 94.17 34.54 0 11.93 -20.15 137.75 0 10.69 20.15 33.31 0zm-68.67 -71.55l12.75 27.14 -113.49 0 14.8 -27.14 85.94 0z"></path></svg>
