<svg xmlns="http://www.w3.org/2000/svg" width="128" height="128" fill-rule="evenodd" clip-rule="evenodd" image-rendering="optimizeQuality" shape-rendering="geometricPrecision" text-rendering="geometricPrecision" viewBox="0 0 1333.33 1333.33" id="amul-logo"><rect width="646.66" height="646.66" x="344.61" y="343.33" fill="#e23338"></rect><rect width="646.66" height="172.59" x="344.61" y="780.45" fill="#fff"></rect><path fill="#fefefe" d="M392.13 740.57c-23.86,-24.1 -13.17,-71.4 27.61,-65.81 3.85,-8.1 6.85,-15.86 9.41,-22.42 -9.61,-0.06 -16.99,1.01 -24.53,9.17 3.18,-18.84 14.66,-27.83 33.06,-28.69l19.99 -49.02c-0.48,-6.47 -20.89,-2.69 -24.87,10.02l-6.53 -5.61c6.63,-12.63 13.27,-24.73 19.91,-36.85 37.65,-18.84 60.46,25.59 73.22,53.25 9.24,19.99 17.32,40.75 25.94,61.16 1.5,4.04 3.51,8.12 5.52,12.17 3.04,2.11 6.62,-0.74 10.43,-5.85l4.66 5.85c-14.7,14.57 -28.59,28.02 -43.16,43.41 -0.99,-2.06 -2,-4.07 -3,-5.59 -5.98,-17.26 -11.98,-38.03 -17.98,-55.28 -4.12,1.94 -42.22,3.15 -53.67,-5.42 -2.56,....36,3.33 -6.4,5.62 -9.07,6.83 -2.66,1.19 -5.7,1.81 -9.07,1.81 -4.67,-0.02 -8.3,-1.08 -10.92,-3.24 -2.59,-2.14 -3.91,-4.87 -3.91,-8.17 0,-5 2.41,-9 7.24,-12 3.86,-2.41 12.34,-4.76 25.45,-7.15l0 -6.69c0,-2.67 -0.88,-4.81 -2.64,-6.48 -1.74,-1.67 -4.09,-2.5 -7.04,-2.5 -2.26,0 -4.24,0.49 -5.94,1.43 -1.17,0.62 -1.74,1.28 -1.74,1.91 0.01,0.32 0.22,0.83 0.65,1.49 0.94,1.48 1.39,2.94 1.39,4.39 0.01,1.86 -0.61,3.36 -1.83,4.5 -1.21,1.13 -2.86,1.73 -4.91,1.73 -2.17,0 -3.94,-0.63 -5.26,-1.87 -1.31,-1.26 -1.98,-2.84 -1.98,-4.79 0,-3.21 1.74,-6.03 5.21,-8.48 4.34,-3.06 9.72,-4.57 16.17,-4.57 4.87,-0 9.18,0.76 12.94,2.29 2.43,0.94 4.39,2.64 5.89,5.05 1.51,2.37 2.25,5.35 2.25,8.85l0.01 23.55c0,1.78 0.31,3.08 0.99,3.88 0.67,0.79 1.56,1.18 2.72,1.18 0.95,-0.02 2.22,-0.5 3.76,-1.56zm-20.62 -18.99c-7.07,0.96 -11.87,2.45 -14.37,4.44 -2.49,1.99 -3.74,4.64 -3.74,7.93 0,2.3 0.59,4.08 1.76,5.33 1.19,1.22 2.83,1.85 4.94,1.85 3.28,-0.01 6,-1.17 8.16,-3.53 2.18,-2.35 3.25,-5.55 3.25,-9.61l0 -6.41z"></path></svg>
