<svg xmlns="http://www.w3.org/2000/svg" width="128" height="128" fill-rule="evenodd" clip-rule="evenodd" image-rendering="optimizeQuality" shape-rendering="geometricPrecision" text-rendering="geometricPrecision" viewBox="0 0 1333.33 1333.33" id="avengers-logo"><path fill="red" fill-rule="nonzero" d="M264.15 832.02l0 0c-24,0 -46.61,-6.08 -66.38,-16.81l-11.79 24.37c23.34,12.48 49.94,19.54 78.17,19.54 53.37,0 100.89,-25.26 131.56,-64.59l-36.44 0c-25.04,23.27 -58.44,37.48 -95.12,37.48z"></path><polygon fill="red" fill-rule="nonzero" points="293.76 747.77 293.76 747.77 295.57 747.77 295.57 769.34 350.26 727.35 295.57 675.95 295.57 698.19 281.78 698.19 237.25 698.19 295.57 559.67 295.57 656.95 295.57 661.74 342.81 706.41 343.98 471.09 292.3 471.09 103.47 861.01 166.17 862.24 216.83 747.77 275.26 747.77"></polygon><path fill="red" fill-rule="nonzero" d="M141.96 760.31l0 0c-11.77,-20.8 -18.5,-44.89 -18.5,-70.58 0,-71.54 52.2,-130.73 120.17,-140.78l13.78 -28.46c-89.37,3.57 -160.75,77.98 -160.75,169.24 0,36.63 11.5,70.55 31.04,98.26l14.26 -27.68z"></path><polygon fill="red" fill-rule="nonzero" points="342.71 786.5 342.71 786.5 342.71 744.51 293.7 786.5"></polygon><path fill="red" d="M808.02 633.43c.69-4.12 2.06-8.01 3.21-11.67.68-2.51 1.6-4.8 2.29-7.32.68-2.74.68-4.12-3.21-4.12-7.55 0-14.87 0-22.42 0-2.74 0-2.98.23-3.66 2.97-4.58 15.1-8.93 30.43-13.27 45.54-3.89 13.73-8.01 27.46-12.13 41.19-2.75 9.38-5.5 18.53-8.24 27.91-.92 2.98-1.83 5.96-2.52 9.15-.92 3.44-.23 4.35 3.2 4.35 7.56 0 15.33 0 22.88 0 1.61 0 2.06-.69 2.52-2.06 1.37-4.81 2.74-9.38 4.12-14.19 2.74-9.61 5.49-19.22 8.46-29.06 2.52-8.93 5.26-18.08 8.01-27 .69-2.28.69-4.12-.23-6.4-1.15-3.67-2.29-7.1-3.43-10.98 17.16 0 34.09 0 51.25 0-1.83 6.63-3.66 12.81-5.5 19.22-2.05 7.32-4.34 14.87-6.63 22.19-2.98 10.3-6.18 20.37-9.15 30.66-2.29 7.78-4.35 15.56-6.64 23.34-3.2 11.21-6.63 22.19-9.84 33.41-.91 3.2-1.83 6.18-2.52 9.38-.23 1.37-.92 2.06-2.29 2.52-8.67 2.39-17.35 5.19-26.02 7.42l-.14.04-1.29.32-4.63 1.31-.18.05-.19.06-.18.05-.19.06-.19.06-18.06 5 1.9-7.6 0-.01 3-12.02.17-.68c.46-1.83.23-2.29-2.29-2.29-13.73 0-27.46 0-40.96 0-1.6 0-2.97 0-4.58-.23-5.26-.68-9.61-2.74-12.58-7.55-2.29-3.66-2.74-7.78-1.6-11.9 1.37-6.18 3.43-12.35 5.04-18.3 2.06-7.32 4.34-14.64 6.4-22.19 2.06-7.1 4.12-14.41 6.41-21.51 2.29-7.55 4.35-15.1 6.64-22.65 2.74-9.15 5.49-18.31 8.01-27.69 2.97-10.3 6.18-20.83 9.15-31.12 3.2-11.67 7.09-23.34 10.52-35.24.92-3.43 2.06-6.64 3.66-9.84 3.21-5.49 7.78-8.93 13.96-10.3 1.83-.46 3.66-.23 5.49-.23 25.4 0 51.02 0 76.42 0 3.21 0 6.41.23 9.39 2.06 4.57 2.75 6.18 7.1 6.63 11.9.23 4.35-1.15 8.47-2.29 12.59-3.43 11.67-6.87 23.34-10.3 35.01-.46 1.37-1.15 2.97-1.37 4.34-.24 1.61-1.15 2.29-2.75 2.06-.23 0-.69 0-.92 0-10.98 0-21.96 0-32.94 0-1.38 0-2.29 0-3.44 0zM1063.37 673.7c1.6 1.14 2.98 2.06 4.12 2.97 4.12 2.98 7.09 6.64 8.24 11.67.69 2.98.69 5.95 0 8.69-2.06 8.24-4.57 16.25-6.86 24.26-2.98 10.52-6.18 21.28-9.38 31.8-2.75 9.61-5.49 18.99-8.47 28.6-.69 2.06-.69 2.06-2.97 2.06-10.98 0-21.74 0-32.72 0-2.06 0-4.12 0-5.95 0-.69 0-1.37.23-1.83-.46 2.52-8.92 5.26-18.07 7.78-27 3.2-10.52 6.18-21.05 9.38-31.57 2.52-8.69 5.04-17.62 7.55-26.31.46-1.15.46-2.29 0-3.66-.69-1.37-1.37-2.29-2.98-2.29-6.86 0-13.5 0-20.37 0-1.6 0-1.83 1.15-2.06 2.29-2.06 6.87-3.89 13.73-5.95 20.59-2.97 9.84-5.72 19.68-8.69 29.75-3.66 12.35-7.32 24.48-10.75 36.83-.46 1.15-.69 2.06-2.29 2.06-13.96 0-27.69 0-41.65 0-.23 0-.46-.23-.91-.23 1.37-4.58 2.52-9.15 3.89-13.73 1.37-4.58 2.74-9.38 4.12-13.96 2.52-8.46 5.03-16.93 7.55-25.4 3.2-11.21 6.17-22.19 9.61-33.41 2.74-8.93 5.26-17.85 7.78-26.77 3.43-11.67 6.63-23.34 10.06-35.01 3.43-12.13 7.09-24.03 10.76-35.93 2.52-8.69 5.03-17.39 7.55-25.85.69-2.29 1.37-4.35 1.83-6.64.23-1.37.91-2.06 2.52-1.83.46 0 1.15 0 1.83 0 27.46 0 55.15 0 82.6 0 2.74 0 5.26 0 8.01.69 5.72 1.6 9.15 5.49 10.98 10.98 2.06 6.86 1.6 13.5-.46 20.37-2.74 9.38-5.49 18.76-8.24 28.37-2.98 10.53-5.95 20.82-9.15 31.35-1.6 5.04-5.26 8.47-9.84 10.98-4.57 2.52-9.38 4.13-14.64 5.73zm-18.08-64.98c-3.66 0-7.55 0-11.21 0-1.6 0-2.29.69-2.52 1.83-.69 2.52-1.37 5.04-2.06 7.32-2.74 9.38-5.49 18.76-8.01 27.91-.69 2.06-.69 2.06 1.37 2.06 6.86 0 13.73 0 20.59 0 2.74 0 3.89-.69 4.8-3.66 1.14-3.66 2.29-7.55 3.43-11.21.92-2.74 1.6-5.49 2.29-8.24 1.37-4.8 2.98-9.61 4.35-14.42.46-1.6.23-2.06-1.6-2.06-4.12.46-7.78.46-11.44.46zM663.87 665.92c1.37-3.43 2.06-6.41 2.98-9.61 2.74-9.84 5.72-19.45 8.46-29.29 3.43-12.13 7.09-24.02 10.53-36.15 2.29-8.24 4.8-16.48 7.09-24.48.23-.91.69-1.15 1.6-1.15.46 0 .91 0 1.37 0 11.21 0 22.2 0 33.41 0 .69 0 1.6-.23 2.52.46-1.37 4.35-2.52 8.92-3.89 13.27-2.29 7.55-4.35 14.87-6.64 22.42-5.03 17.16-10.3 34.55-15.33 51.71-3.89 12.81-7.55 25.85-11.21 38.67-3.43 11.9-7.09 23.8-10.76 35.92-4.12 13.73-8.01 27.46-12.13 41.19-1.37 4.35-2.74 8.69-3.89 13.04-.46 1.37-.91 1.83-2.29 1.83-11.21 0-22.65 0-33.87 0-1.37 0-1.83-.46-1.83-1.83 0-3.66 0-7.32 0-10.98 0-16.02 0-32.26 0-48.28 0-13.04 0-26.08-.23-39.13 0-.69 0-1.6-.69-2.52-1.15 3.89-2.29 7.78-3.43 11.67-4.8 16.7-9.84 33.41-14.64 50.11-2.52 8.24-4.8 16.7-7.32 24.94-1.37 4.58-2.74 9.38-4.12 13.96-.46 1.37-.91 1.83-2.29 1.83-12.35 0-24.48 0-36.83 0-.23 0-.46-.23-.92-.23-.46-1.37.23-2.75.69-3.89 4.12-13.5 8.01-27.23 11.9-40.73 3.66-12.59 7.32-24.94 10.98-37.3 3.43-11.9 6.87-23.57 10.3-35.46 3.2-11.67 7.09-23.34 10.53-35.24 2.06-7.09 4.12-14.41 6.18-21.51 2.06-7.09 4.35-14.41 6.41-21.51 2.06-6.63 3.89-13.5 5.95-20.13.69-2.29.69-2.29 2.98-2.29 4.12 0 8.46 0 12.59 0 7.32 0 14.64 0 22.19 0 2.52 0 2.52 0 2.52 2.52 0 21.28.23 42.56.23 63.84 0 10.52 0 21.05 0 31.57.22.69 0 1.61.91 2.75zM1132.47 712.59c-.91 3.43-1.83 7.09-2.97 10.52-1.37 4.58-2.75 9.38-4.12 13.96-.91 2.74 0 3.89 2.98 3.89 9.61 0 19.45 0 29.06 0 1.6 0 2.06-.46 2.52-2.06 2.29-8.47 4.8-16.7 7.32-25.17.69-2.52.69-2.52-1.15-3.89-2.98-2.52-5.95-5.04-8.69-7.32-7.32-6.18-14.65-12.36-21.96-18.54-6.41-5.26-12.59-10.76-18.99-16.02-5.26-4.35-6.87-9.84-5.49-16.48.91-4.8 2.75-9.38 4.12-14.19 1.83-6.63 3.89-13.27 5.72-19.91 2.98-10.3 5.72-20.59 9.15-30.89.69-2.06.91-4.12 1.6-5.95 2.75-7.55 7.78-12.58 15.79-14.64 2.75-.69 5.72-.69 8.47-.69 21.74 0 43.24 0 64.98 0 2.52 0 5.03 0 7.32.91 5.49 1.83 8.47 6.18 8.47 11.9 0 .91 0 1.83 0 2.52.46 5.95-1.14 11.67-2.98 17.39-2.52 8.01-4.8 16.25-7.32 24.48-.69 2.52-1.6 5.04-2.29 7.78-.46 1.37-.91 1.83-2.52 1.83-10.98 0-21.96 0-32.95 0-2.06 0-2.29-.23-1.6-2.29 1.83-4.8 2.98-10.07 4.58-14.87 1.14-3.66.69-4.35-3.2-4.35-8.24 0-16.48 0-24.71 0-3.66 0-4.12.23-5.26 3.89-1.37 4.35-2.52 8.69-3.89 13.27-.46 1.83-.92 3.43-1.6 5.26-.46 1.6-.23 2.97.69 4.35.91 1.14 1.83 2.06 2.74 2.98 8.47 7.55 17.16 14.87 25.63 22.42 6.63 5.72 13.27 11.67 19.91 17.62 2.74 2.52 5.26 5.26 6.86 8.69 1.37 2.98 1.37 6.18.69 9.38-1.37 5.95-3.43 11.9-5.03 17.85-2.52 8.24-4.8 16.7-7.32 24.94-2.06 7.09-3.89 14.19-6.41 21.05-4.12 11.21-11.44 19.22-23.57 22.19-1.6.46-3.2.46-4.8.46-22.19 0-44.61 0-66.81 0-2.75 0-5.49-.23-8.24-1.15-6.86-2.52-10.3-8.24-9.84-15.56.23-3.66 1.37-7.09 2.52-10.53 4.12-14.19 8.47-28.37 12.59-42.56.46-1.14.91-1.83 2.06-1.83 12.35 0 24.48 0 36.84 0 .45-1.15.68-.92 1.14-.69zM403.71 680.79c5.03-12.13 10.07-24.48 14.87-36.61 5.26-12.81 10.3-25.85 15.33-38.67 3.89-9.38 7.55-18.76 11.44-28.14 1.37-3.43 2.98-7.09 4.35-10.53.46-1.14 1.15-1.6 2.29-1.6 1.37 0 2.98 0 4.35 0 13.04 0 26.08 0 39.13 0 .91 0 1.83-.23 2.98.23-.23 2.29-1.6 4.35-2.52 6.41-3.43 8.24-7.09 16.48-10.53 24.71-3.66 8.47-7.09 16.93-10.75 25.63-3.66 8.69-7.32 17.39-10.98 26.08-3.66 8.92-7.55 17.85-11.21 26.77-6.18 14.41-12.13 29.06-18.3 43.47-4.58 11.21-9.38 22.19-13.96 33.41-4.35 10.07-8.69 20.37-12.81 30.43-.69 1.37-1.37 1.6-2.52 1.6-5.26 0-10.3 0-15.56 0-8.69 0-17.39 0-26.08 0-2.52 0-2.52 0-2.52-2.74 0-28.6 0-57.43 0-86.03 0-29.97 0-60.18 0-90.15 0-12.13 0-24.03 0-36.15 0-.69 0-1.37 0-2.06 0-1.14.46-1.6 1.6-1.37.69 0 1.15 0 1.83 0 13.5 0 27 0 40.5 0 .69 0 1.14 0 1.83 0 .91 0 1.37.23 1.37 1.37-.23 2.29 0 4.81-.23 7.09-.46 2.75-.23 5.26-.46 8.01-.23 9.15-.46 18.07-.91 27.23-.69 17.62-1.37 35.24-1.83 53.08-.23 5.95-.23 11.9-.69 17.85-.46 0-.69.46 0 .69zM552.67 740.96c-1.6 5.26-2.98 10.3-4.35 15.1-2.06 7.32-4.35 14.41-6.41 21.74-.69 2.06-.69 4.58-2.06 5.72-1.37 1.15-3.89.46-5.95.46-20.37 0-40.73 0-61.09 0-3.2 0-6.17-.23-9.38-1.37-7.09-2.74-10.76-10.07-9.15-17.16 2.06-9.61 5.26-18.76 7.78-28.14 2.06-7.55 4.35-14.87 6.41-22.43 2.52-8.46 5.03-16.7 7.32-25.17 2.75-9.61 5.72-18.99 8.47-28.6 3.66-12.13 7.09-24.48 10.76-36.61 2.29-7.55 4.12-15.33 6.63-22.88 2.06-6.63 3.89-13.5 5.95-20.13 2.98-8.93 8.93-13.96 18.07-15.79 2.06-.46 4.12-.23 5.95-.23 22.65 0 45.07 0 67.73 0 .46 0 1.14 0 1.83 0-.69 4.12-2.29 8.01-3.43 12.13-2.29 8.01-4.57 15.79-6.86 23.8-.46 1.6-.92 3.2-1.37 5.03-.69 2.29-.69 2.29-3.2 2.29-11.67 0-23.11 0-34.78 0-3.2 0-3.2 0-4.12 2.98-1.15 4.12-2.29 8.47-3.66 12.59-2.06 7.09-4.12 13.96-6.18 21.05-.23.69-.46 1.37-.23 2.52 3.43.23 6.87 0 10.3 0 3.43 0 7.09 0 10.52 0 3.43 0 6.87 0 10.3 0 3.43 0 7.09 0 10.75 0-1.14 3.2-3.2 5.49-4.8 8.24-6.41 10.07-13.04 20.13-19.45 30.43-1.83 2.74-3.66 3.66-6.86 3.66-7.09-.23-14.42 0-21.51 0-2.29 0-2.29 0-2.97 2.06-2.98 9.84-5.49 19.68-8.69 29.29-1.6 5.04-2.75 10.3-4.58 15.33-.23.69-.23 1.37-.46 2.06-.23 1.15.46 1.83 1.6 2.06.92.23 1.83.23 2.75.23 11.44 0 22.88 0 34.09 0 2.06-.22 2.98-.22 4.35-.22zM928.83 741.42c-.46 2.06-.92 4.12-1.6 6.41-3.2 11.44-6.64 22.88-9.84 34.32-.46 1.6-1.14 1.83-2.74 1.83-6.41 0-13.04 0-19.45 0-15.33 0-30.89 0-46.22 0-3.66 0-7.09-.46-10.3-2.06-5.03-2.74-7.55-6.86-8.01-12.58-.23-4.12 1.15-7.78 2.06-11.44.69-2.29 1.37-4.58 2.06-6.87 2.97-10.06 5.95-20.13 8.92-30.2 4.12-14.19 8.47-28.6 12.59-42.79 2.98-10.52 5.95-21.05 9.15-31.35 3.89-13.27 7.78-26.77 11.9-40.04 2.52-8.46 4.8-16.93 7.55-25.4 2.06-6.41 6.18-11.21 12.36-13.73 2.29-.91 4.8-1.6 7.09-1.6 17.16 0 34.55-.23 51.71-.23 6.64 0 13.27 0 19.91 0 .46 0 .92 0 1.6 0-.23 3.2-1.37 6.18-2.29 8.92-2.74 8.93-5.03 17.85-7.78 26.54-.69 2.29-1.37 4.35-2.06 6.63-.23 1.15-.92 1.37-1.83 1.37-.69 0-1.37 0-2.06 0-11.21 0-22.19 0-33.41 0-2.75 0-2.75 0-3.66 2.74-1.37 4.58-2.75 8.93-3.89 13.5-2.06 7.32-4.12 14.42-6.18 21.74 0 .46-.46.69 0 1.37 3.2.23 6.87 0 10.3 0 3.43 0 7.09 0 10.52 0 3.43 0 7.09 0 10.53 0 3.43 0 7.09 0 10.98 0-2.75 4.35-5.26 8.24-7.78 12.13-5.26 8.24-10.53 16.48-15.79 24.48-.46.69-1.37 1.37-1.6 2.29-.92 2.74-2.98 2.97-5.49 2.97-7.32-.23-14.65 0-22.19 0-2.75 0-2.75 0-3.43 2.75-4.12 14.19-8.24 28.6-12.35 42.79-.23.91-.46 1.83-.69 2.75-.23 1.83.23 2.52 2.06 2.74.69 0 1.6 0 2.29 0 11.21 0 22.43 0 33.64 0 1.37-.46 2.28-.69 3.43 0z"></path></svg>
