<svg xmlns="http://www.w3.org/2000/svg" width="225.684" height="423.286" id="ferrari-logo"><path fill="#f6d33c" d="M225.683 11.288v43.438H0v357.24a11.369 11.369 0 0 0 11.333 11.322H214.35a11.362 11.362 0 0 0 11.333-11.319V11.288Z"></path><path fill="#2f9c5c" d="M214.35 0H11.333C5.1 0 0 5.442 0 12.093v6.018h225.683V12.05C225.655 5.428 220.579 0 214.35 0Z"></path><path fill="#fff" d="M0 18.575Zm0 0h225.683V35.73H0Zm0-1.617Z"></path><path fill="#cf4037" d="M0 35.969h225.683v18.758H0Z"></path><path fill="#d35b31" d="M0 35.73Zm0 0h225.683v.239H0Z"></path><path d="M10.166 405.752v-4.289h2.377c1.2 0 3.572-.253 3.572-3.108v-25.717c0-1.547-.112-5.245-3.093-5.245h-2.744l3.108-5.47h183.19v5.47H28.038c-1.547 0-3.572.352-3.572 3.459v8.1c.352.942 1.786 1.308 2.5 1.308s3.22-.127 3.22-4.05h3.557v13.217h-3.568a3.783 3.783 0 0 0-3.093-3.333c-1.434-.112-2.615.366-2.615 2.278v10c0 1.069 1.308 3.108 4.4 3.108h2.137v4.289H10.166v-.014Z"></path><path d="M115.893 373.594c0 .956 1.181 1.912 1.9 2.137.844-.591 5.245-3.093 8.69-3.093s5.245 1.786 5.245 4.528v13.105h-8.341v-10.139c0-1.308-.352-2.25-1.547-2.376s-4.289 2.39-5.118 3.586v18.1a3.1 3.1 0 0 0 3.093 2.854v3.459h-14.524v-3.572c1.434 0 2.981-.478 3.093-2.629v-20.139a2.976 2.976 0 0 0-3.093-2.25v-3.586h10.6Zm99.694 0h-14.525v3.586a2.976 2.976 0 0 1 3.093 2.25v20.135c-.113 2.137-1.673 2.629-3.093 2.629v3.571h14.525v-3.473a3.094 3.094 0 0 1-3.093-2.854v-19.756c0-1.434 1.547-2.5 3.093-2.5Zm-131.838 0c0 .956 1.181 1.912 1.9 2.137.844-.591 5.245-3.093 8.69-3.093s5.243 1.786 5.243 4.527v13.105h-8.339v-10.138c0-1.308-.352-2.25-1.547-2.376s-4.289 2.376-5.118 3.572v18.1a3.1 3.1 0 0 0 3.093 2.854v3.459H73.147v-3.576c1.434 0 2.981-.478 3.093-2.629v-20.135a2.976 2.976 0 0 0-3.093-2.25v-3.586h10.6v.028Zm96.587 0c0 .956 1.2 1.912 1.912 2.137.844-.591 5.245-3.093 8.69-3.093s5.245 1.786 5.245 4.528v13.105h-8.338v-10.139c0-1.308-.352-2.25-1.547-2.376s-4.289 2.376-5.118 3.572v18.1a3.094 3.094 0 0 0 3.093 2.854v3.459h-14.526v-3.576c1.434 0 2.967-.478 3.093-2.629v-20.135a2.976 2.976 0 0 0-3.093-2.25v-3.586h10.588v.028ZM66.847 395.765h-8.324v3.22c0 1.308-.239 4.05-4.162 4.05s-5.118-2.629-5.118-4.528v-6.778a1.42 1.42 0 0 1 1.308-1.434h16.31v-8.69c0-3.937-.83-5.132-2.5-6.792s-7.509-2.137-10.124-2.137c-6.665 0-8.816.942-10.715 2.5s-2.629 4.767-2.629 7.143v13.471c0 3.572.717 6.074 2.981 8.338s9.168 2.25 10.6 2.25 6.187.127 9.646-2.376c3.459-2.531 2.728-8.24 2.728-8.24ZM49.228 380.99c0-1.912.591-4.767 4.767-4.767s4.528 3.108 4.528 4.767v4.289a1.448 1.448 0 0 1-1.434 1.434h-6.426a1.439 1.439 0 0 1-1.434-1.308v-4.415Zm113.137 18.448v-17.857c0-2.742-.127-5.6-2.981-7.635s-7.509-1.9-9.294-1.9-7.734 0-10.49 3.093a9.286 9.286 0 0 0-2.264 7.27h7.8s.534-4.05 1.617-5.118 3.923-2.264 6.131-.352a3.286 3.286 0 0 1 1.139 2.629v5.118a1.271 1.271 0 0 1-1.083 1.2s-10.841.239-12.74 1.659-3.572 2.376-3.572 7.621 1.308 7.27 2.854 8.338 2.264 2.264 9.294 2.264h16.677v-3.473a3.094 3.094 0 0 1-3.088-2.857Zm-8.338 2.039a.969.969 0 0 1-.844.717h-4.101c-2.925 0-3.754-2.5-3.754-4.05v-4.579c0-4.457 4.64-4.359 6.482-4.359s2.208 1.547 2.208 2.573v9.7h.014Zm53.742-34.127c4.176 0 7.551-1.266 7.551-2.826s-3.375-2.826-7.551-2.826-7.537 1.266-7.537 2.826 3.375 2.827 7.537 2.827ZM103.153 242.374l-.436 1.069 1.294 6.37 1.744 5.793 4.767 10.476 4.626 8.085 3.67 4.992.07 1.209-.225 1.012-.928.366-7.706-.141-7.607-1.153-7.94-2.826-3.529-.211-1.012.436-4.64-.506-1.856-.647-12.219-.3-1.519.633-1.083.309-.366.506.07 1 2.967 4.359 1.153.492 3.909 2.447 2.25.731 6.126-.21 4.542-1.237.886.436.408.872.745.211 4.05.07 1.153.366 1.364-.366 7.509 1.012 8.605 2.165 6.749 2.672 1.237.886 3.262.141 1.744-.436 1.926-4.2-.3-1.87-2.868-5.709-1.294-3.529-1.369-7.384.352-7.228.436-1.94-.52-1.687-4.753-3.529-1.015-4.316-2.784-4.036-6.721-5.428-2.756-1.083-1.153.183-1.012.675Zm2.588-147.418-.2-2.1-2.964-3.591-.914-.267-.633.9.084 1.083-1 .9-.1 1.251 2.826 1.828h2.9Z"></path><path fill="none" d="m99.947 92.594.07-.169"></path><path d="m202.089 184.652-1.012-.464v1.537l-.8.9-1.448 2.165-.816.534-3.164 4.176-1.083 2.433-1.181.2-1.083-.647-.633-2.883.169-3.347.731-3.093 5.428-8.31 2.151-4.415.281-3.093-.337-.97-.647.633-1.083 2.7-1.645 2.714-5.231 4.682-4.162 4.893-.816-.084-.281-.83.183-5.695 1.266-4.148 2.264-4.612 3-3.712 3.712-3.164.337-.745-.45-.337-3.431 2-5.885 5.135-2.334 3.178-2.278 4.148-1.251 3.347-.548 7.86 2.165 8.788 2.081 6.4 2.165 13.539-.352 6.51-1.548 5.78-3.811 4.795-3.867 3.529-4.978 2.8-4.781.281-.647-2.334-1.715-3.361-5.962-7.945-4.443-4.246-6.5-5.245-6.229-4.232-8.957-7.495-4.865-6.074-5.357-8.76-1.441-5.243.366-3.262.731-.633 4.893 2.714 2.419-.1 5.793 3.093 3.543 2.629 2.053.281.478-.9-.548-.1-.633.281-1.012-.647-2.165-3.431-2.447-2.25-3.782-1.181.267-.717h1.9l2.179.717 4.612 2.714.548-.731-.9-1.266-2.447-2.179-3.811-1.983-4.6-1.8-.9-.731.9-.647 2.053 1.012 3.811.633 6.229 2.7 3.811.534 2.714-.366 3.614-2 .9-.872.1-.633-.83.056-.816.844-5.048 1.251-2-.281-1.912-1.519-1.73-2.011-2.039-1.519-6.06-1.645-1.28-.816.1-.7 1.181.169 9.393-.436 1.181.97 3.431.464.717-.534-1.251-.366-3.178-2.531-2.628-1.375-4.148-.534-.717-.436 1.448-.816h2.348l6.51 2.686 2.9.1 1.533-.731.45-.984-1.167-.534-2.433-.1-2.081-.717-1.814-1.547-2-1-2.629-.436-2.264-.816-.984-1.28.169-.633 3.262.844 1.083.8 1.547.183.169-.816-1.617-1.28-.464-1.153 2.179.337 2.053 1.083 2.629.3 1.012 1.9 2.7 1.617.155-.028.591-.253.7-.436-.337-.534-1.012.07-2.714-4.05-3.164-2.812-3.248-1.462-2.881-3.432-1.814-.97-.281-.914.816-.548 7.509 2.151 1.167 1.645 1.9.984h1.448l1.926.534 2.081-.366.8-.717-1.167-1-3.712-.717-1.181-1-1.547-2.25-.366-1.462-6.609-4.682-2.681-2.528-.183-.731h.619l3.529 2.812 5.526 3.529 2.433 2.264 3.431 1.533.633-1-.9-.337-1.888-1.715-.55-1.915-3.628-3.543-.816-2.053-2.8-4.19-3.806-3.33-.169-1.069 1.35.169 4.978 2.264 3.164.169 2.348 1.111 2.531.436 2.151-.647-.169-.9-2.461-.534-8.859-4.345-1.224-1.538.436-.534.647.436.97.352 1.28.112 6.595-.366 2.081.816 2.165 1.533.914.281.1-.816-.731-.731-2.165-2-3.361-1.715-7.045-.548-3.431-3.614-3.6-2.7.816-.633 6.06 2.629 3.431.816h2.967l2.447 2.728 2 1.167.717-.731-2.719-3.982-4.246-3.065-3.529-.844-3-3.136-2.629-1.533-3.6-.914 2-1.715 6.159-2 .619-.816-.337-.633-2.854-.633-10.194.2-1.815-2.011-4.7-2.517-3.431-.548h-2.963l-3.6-4.078-3.361-3.057-2.067 3.434-.1 1.069.97 1.28.1 1.083-.7.633-2.292.183-8.214-2.069-4.978.717.366 1.069 1.73-.07.7.127-.028.956-1 .225-1.308-.183-3.431.886-1.181.084-.366.506.422.717.886.2.83-.239.956-.422.984-.042 2.081.084 3.473.942 2.77 1.251.253.6-.281.464-1.308.464-.787.366-6.131 3.909-7.462 3.827-6.2.591-.928.253-.534 1.125-.422 1.223-.464.844-2.321 3.713-.759.956-.07 1.111.07 3.192 1.012.9.886.464 1.055-.084 6.285-2.1 1.055.042.239.675-.239.633-.886.464-4.7 1.589-.394.661-.07.717.661.591 1.404.189h1.13l2.967-.422 2.222-1.181 1.476-.3 1.266-.253.956.309 2.784.112 1.125.661 4.074.874 1.251.183 1.94-.337 2.461.169 1.083.422.591 1-1.012 4.753-3.15 8.732-6.623 9.21-6.941 6.662-.858 2.812-1.2 1.42-6.173 4.317-2.369 1.209-2.6 3.136-1.083.675-1.519.759-.984-.225-10.814-5.554-6.637-5.3-2.7-.97-2.376-.436-3.037.647-4.022 2.5-4.11 11.391-.127 3.15-2.376 7.675-1.406 2.714-.759 2.7-.45 3.361-1.969 4.429-.2 9.1-.531 1.968.309 1.715-.126 2.813.984 2.264.759.534 1.406-.436 3.168-3.431 1.617-2.615.647-2.151-2.6-11.291.436-4.12 1.083-3.333 2.817-3.811 1.392-.127.661-.408 3.037-3.15.773-2.812.408-3.262.759-.956.759-.225.97.323 1.406.759 4.978 6.271 3.7 3.15 1.73.759.534 1.083-.534.534-11.038-1.94h-6.185l-3.586 2.7-1.519 2.6-1.153 2.953-.127 2.165.661 3.895 1.519 4.978 3.555 15.708.661 4.317.633 1.519 3.164 2.826 1.715 2.6 1.2 3.051 1.842 2.686 2.7 2.615 1.969 1.2 1.294.1 1.083-.309 1.392-2.826.45-1.828v-4.232l-.52-1.2c-.1 0-.1-.773-.1-.872l-.225-.759-2.5-2.925-3.023-1.308-1.1-.337-.2-1.842.1-1.167-2.053-2.39-1.307-3.027-1.969-8.324-1.49-3.15-.534-3.8.858-2.292 1.519-.858h1.181l1.744 1.519 2.5 1.5 8.873 4.007 3.037 1.744v1.631l2.8 1.617 3.586 1.209h7.48l-.534 1.406-.323.759 2.8 4.542 6.5 6.806 8.732 7.073 8.071 4.317 8.535 5.948 3.529 3 3.684 4.978.169 2.081.83 2.151 2.264 1.617 2.053.816 1.266-.169 2.461-2.531.337-2.081 1.715-2.967.816-6.792.577-1.251 1.153-.562h1.1l.07.83-.816.886-1.251 3.093-.2 4.5-.443 1.547-4.978 8.577-1.055 4.246-.534 4.443.534 4.964.7 2.9 5.625 11.854 2.348 3.7 2.8 3.445.534 1.167v.816l-.366 1.012-5.695 7.846-6.06 6.609-3.808 1.715-1.519 1.462-.816 1.631-6.4 7.143-1.547 2.686-1.448 4.978.1 1.814 1.083 1.153 5.695-.169 4.148-2.151.38-.914h.816l1.251-.548 1.181-1.1.633-4.331-.366-.9-.169-.9.633.183.7.2.745-.531 1.167-.745 2.8-3.811.8-1.983.183-1.617 1-.745 2.629-1.519.97-2 5.99-5.779 5.962-3.642.717-.7.281-.745.633-.816-.436-1.083-.492-3.839-.464-1.083-3.487-5.371-.169-3.811 1.35-4.612 1.012-1.617 1.069-.633 7.509-5.962 6.609-7.34 4.232-8.113.914-3.093.436-5.048.731-.717.816-.2.717.464.633 1.5.464 4.078-.366 7.874.534 3.515.647.9.534-.07.275-.637-.366-1.448v-2.461l.745-2.053.7-5.076.464-.97h.548l.436.436.816 3.361-.7 6.131-3.192 6.721-.9 2.8v3.712l.647 1.912h1.181l.6-.844-.337-.9-.267-1.617 6.763-10.841 1.35-7.326v-4.148l-.816-2.9-1.617-2.25-.2-1.083.731-.352.9.436 2.644 4.078.984 7.087.9 2.826.1.07 1.251 2.8.816.3.366-.731-.1-.45-.619-2.067v-5.16l.548-5.146-.2-1.448-2.7-4.978.436-.816 1.715-.352 4.879-2.433 2.264-2 2.9-3.895 3-6.328.534-9.393-2.7-17.8 1.083-6.06 1.518-3.344 2.18-3.431.816-2.179.169-1.083-.7-.984ZM79.137 119.225l-.7.7-1.012.562-1.35.3-.464-.3-.169-.956.394-1.35.956-1.336.787-.394.717.07.858.717.394.633-.408 1.35Zm3.543-.9-.253.127-.478.028-.408-.2-.309-.366.042-.45.366-.591.3-.2h.394l.352.084.127.366.042.633-.174.569Zm4.359 4.022-.366.183h-.464l-.267-.155-.141-.394.042-.478.281-.3.337-.014.366.1.169.267.112.436-.07.352Zm8.366-12.655-.562.155-.689.169-.759.633-1.7 1.026-5.172 1.11-.7-.084 1.125-.956 6.159-2.883.9-.436.689-.1.562.127.45.717-.3.52ZM32.229 211.383l-.731-.169-.366-.717.731-.366.633.07.169.647-.436.534Zm9.505-37.923-1.181 4.077-1.181 1.814-.633.169-.225-.478v-.956l.591-3.768 1.041-1.786.534-.633.787-.239.3.45-.028 1.35Zm5.217-7.2-1.181.45-1.125.113-.689-.267-.169-.492.2-.661.591-.408 1.223-.155.633-.056.436.127.394.366.028.408-.337.577Zm9.59 12.936-.253.028-.577-.366-.844-.464-.717-.591-.661-.661-.3-.366-.066-.532.141-.281.253.028.422.07.464.422.548.478.858.52.52.619.309.464.028.408-.127.225Zm-16.118 12.881-.436.619-.436.169-.3-.253.014-.872.745-1.28.225-.366.366-.169.352.225v.731l-.225.52-.309.675Zm3.065 22.793-.155.225h-.169l-.309-.281-.253-.464-.394-.858-.562-1.139-.858-3.431.225-3.839.155-.225h.267l.281.253.267 1.153.028 1.181 1.617 6.763-.141.661Zm10.954 20.881.3-.07.7.155.323.337.07.408-.07.492-.422.309-.52-.1-.366-.337-.141-.773.127-.422Zm7.081-33.044-.731.042-.956-.155-.661-.3-4.781-3.122-.591-.436.787-.028.858.309 4.387 1.715 1.125.52.591.534.1.492Zm8.179-21.162-1.94 5.667-1.6 2-.8.619-.858.309-.492-.337-.042-.647.675-.731 1.617-3.178 1.026-3.754.956-1.786.647-.914.534-.141.492.2.141.591Zm39.344-57.384.816-1.026.928-.872.83-.562.619-.07.422.281v.759l-.225.844-2.039 1.575-1.125.3-.548-.183-.056-.45.38-.591Zm-3.29-19.025.787-.267.548-.253.675.239.225.492-.506.591-.7.281-.872.042-.323-.591.169-.534Zm-6.82 6.356-.309-.872.464-.942 1.026-.872 1.645-.07 1.2.225.942.633.464 1.111.394 1.181-.07 1.012-1.026.408h-1.117l-2.5-1.181-1.111-.633Zm2.629 12.908h-1.251l-.225-.422.309-.436.38-.225 3.951-2.672.9-.562h.323l.042.661-.6.478-.281 1-.773 1.181-2.77 1Zm-14.933 44.518-.169-.267.042-.661.436-.492 4.753-1.645 5.175-.394 1.617.337 1.519.773 1.2 1.181.07.661-.127.464-.52.1-.773-.1-1.2-.337-1.125-.337-7.354.2-1.167.3-1.125.253-.731.056-.52-.084Zm20.347 66.594-12.29-8.409-6.412-5.906-.717-1.111-.267-1.322.042-1.223.464-.464.816.042 2.644 2.081 5.709 6.454 10.1 9.013.309.506.225.366-.619-.028Zm1.124-56.087-.52.3-1.251.014-.83-.2-.464-.619-.408-.478v-.8l.6-.787.928-.731.886-.127.816.225.239.436.1.97.127 1.026-.225.773Zm2.475-40.43-1.673 4.907-3.262 5.738-2.742 3.853-2.078 2.179-1.448.562-.464-.028-.084-.366.45-1.026 6.82-12.754 2.18-3.5 1.125-1.069.858-.155.366.6-.042 1.055Zm5.02-13.105-.267.661-.956 1.125-2.658 1.181-1.364.028h-.858l-.3-.394.328-.566.759-.337 2.841-1.571.717-.506 1.083-.52.675.155v.745Zm7.185 41.383-.492.141-.633-.042-.422-.422.1-.352.422-.3.633-.042.548.436.014.366-.169.211Zm.745-2.39h-.745l-.38-.225v-.548l.169-.366.394-.127h.52l.492.323.042.38-.492.562Zm1.35-3.712-.492.253-.52.07-.534-.127-.169-.366v-.436l.436-.309.548-.1h.52l.309.267.07.422-.169.323Zm.689-3.122-.661.2-.745-.028-.394-.267-.028-.3.127-.436.591-.267.633-.112.548.281.2.506-.267.422Zm1.589-4.359-.366.492-.337.436-.689.141h-.689l-.591-.3-.056-.464.422-.436.323-.366.464-.169.759-.225h.591l.267.323Zm.984-3.656-.323.506-.562.1-.591.155-.731-.028-.323-.366.042-.534.253-.366.492-.337.759-.113.689.155.3.408v.422Zm1.041-2.7-.773.309-.591.211h-.731l-.3-.056-.366-.127-.2-.366.1-.464.492-.436.422-.225.464-.2.661-.028.633.225.267.52-.084.633Zm.084-4.19-.267.436-.464.38-.689.253-.816.084-.661-.113-.169-.38.1-.309.267-.211 1.181-.6.562-.127.689.07.267.253v.267Zm-1.856-9.941.225-.155.1-.436.084-.352.2-.253.366-.014.436.127.394.225.042.464-.042.759-.591.506-.745.38-.323-.042-.323-.127-.323-.408-.042-.436.127-.253h.422Zm-.422-3.15v-.352l.323-.337.506-.183.619-.028.366.113.1.309-.2.337-.323.352-.506.112h-.549l-.337-.323Zm.028 9.941.436-.281.52-.127.52-.042.366.028.141.225v.352l-.169.408-.337.394-.872.366-.422-.042-.394-.127-.1-.408.07-.464.239-.281Zm2.194-3.023-.112.323-.534.366-.745.281-.408-.1-.394-.239-.084-.38.042-.492.3-.3.422-.3.6-.127.52-.014.352.1.113.337-.07.534Zm.211-10.377-.07.422-.281.38-.45.155-.408.1-.366.056-.492-.056-.127-.281.127-.394.3-.267.309-.183.534-.366.577.028Zm-.773-3.6.3.169.042.422-.014.38-.478.422-.436.169-.281-.042-.225-.112v-.408l.028-.408.323-.337.3-.183.45-.07Zm-.562-2.039-.113.45-.323.225-.3.183-.394.056-.323-.211-.07-.337.155-.3.3-.394.3-.141.394-.028.309.2.07.3Zm-4.022-7.917.717-.042 1-.394.914-.211.759-.056.394.366-.534.816-.548.155-.914.309-1.167.661-1.125.591-1.308.548-.436.042-.366-.112.042-.548-.2-.52v-.928l.422-1.055.591-.633.366-.492.394-.478h.591l.422.408-.112 1.026.1.548Zm-.422-9.773.267.183-.084.253-.394.464-.548.056-.633-.1-.366-.169-.281-.323.323-.267.464-.2.7-.028Zm-3.375-3.81 1.224-.13.661.225.52.281.028.436-.45.211-.675.028-.675-.028-.506-.112-.45-.323.323-.591Zm9.491 127.423-.591.534-.548.619-.534 1.125-.169.787-.366.3-.7-.1-.337-.408.52-3.361.2-1.026.464-1.308.337-.38.52-.113h.689l.3.281.52.773.1 1.448-.394.83Zm-1.912-19.362-4.317-4.246-2.461-3.093-2.165-3.515-1.715-4.345-.717-3 .337-1.715.97-.281 1.012.464 2.165 7.143 5.99 9.041 3.965 5.146-3.065-1.6Zm2.615 56.3-.337.928-1.139 3.15-.141.492-.169.309h-.464l-.366-1.111-.028-1.251.886-4.064 1.912-2.587.816-.1.225.731-1.2 3.5Zm4.275 23.749-.169.028-.309-.155-.591-.872-.886-1.448-.422-.942-.253-1.322v-1.237l.042-.731.183-.225h.394l.408.169.548.647.394 1.1.267 1.462.028 1.181.014.408.225.577.225 1.125-.1.239Zm-18.139 42.424-.366.717-.436.661-.717.464-.689.155h-.281l-.309-.253-.1-.52.127-.633.366-.745 1-1 .759-.464.548-.028.267.225.07.52-.239.9Zm6.735-10.855-.366.52-.464.267-.562.211-.422-.127-.253-.436.056-.45.408-.506.844-.506.6-.112.3.183.07.436-.211.52Zm15.017-14.961-2.531 3.29-6.285 6.032-.717.464-.464-.028-.225-.352.1-.619 8.183-8.635.633-.689.956-.619.337.084.3.366-.281.7Zm6.257-4.837.422-.141.534.014.253.127.028.281-.225.337-.492.436-.436.492h-.3l-.337-.2-.07-.422.141-.408Zm18.1-49.383-.1.816-.253.759-.155.689-.492.3-.464-.127-.253-.45-.155-1.533-1.026-1.434-.1-1.167.591-.745.6-.2.591.042.492.436.562.717.155.816v1.083Zm30.541-28.038-.042 1.153-1.842 6.567L189 233.46l-4.05 4.275-1.111.281-.591-.281-.1-.787.464-1.055 5.371-8.1 1.406-3.726.633-6.735-.562-6.131-.127-1.153.633-.647.408.225.323 1 1.5 6.665v4.626Z"></path></svg>
