<svg xmlns="http://www.w3.org/2000/svg" viewBox="0 0 40 40" id="tesla"><path d="M23.12 7.91 20 11.72l-3.12-3.81a27.78 27.78 0 0 0-10.62 2.61 8.74 8.74 0 0 0 4.05 3c.06-1.54 1.39-1.95 2.8-2.1a22 22 0 0 1 2.64-.1L20 35l4.25-23.67a22 22 0 0 1 2.64.1c1.41.15 2.74.56 2.8 2.1a8.74 8.74 0 0 0 4.05-3 27.78 27.78 0 0 0-10.62-2.62Z"></path><path d="M20 5A43.14 43.14 0 0 0 4.94 7.91a10.32 10.32 0 0 0 .83 1.77A34.56 34.56 0 0 1 20 6.86a34.56 34.56 0 0 1 14.23 2.82 10.32 10.32 0 0 0 .83-1.77A43.14 43.14 0 0 0 20 5Z"></path></svg>
